<mxfile host="app.diagrams.net" modified="2021-12-23T01:32:09.710Z" agent="5.0 (Windows NT 10.0; Win64; x64) AppleWebKit/537.36 (KHTML, like Gecko) Chrome/96.0.4664.110 Safari/537.36" etag="S07ajGCNHcxI2v4XCJpl" version="16.0.3" type="github">
  <diagram id="BBOqHP7dflv5ivErCnwH" name="Page-1">
    <mxGraphModel dx="1422" dy="706" grid="1" gridSize="10" guides="1" tooltips="1" connect="1" arrows="1" fold="1" page="1" pageScale="1" pageWidth="850" pageHeight="1100" math="0" shadow="0">
      <root>
        <mxCell id="0" />
        <mxCell id="1" parent="0" />
        <mxCell id="QHepV67mNHW0xdAY22cd-10" style="edgeStyle=orthogonalEdgeStyle;rounded=0;orthogonalLoop=1;jettySize=auto;html=1;entryX=0.5;entryY=0;entryDx=0;entryDy=0;" edge="1" parent="1" source="QHepV67mNHW0xdAY22cd-1" target="QHepV67mNHW0xdAY22cd-3">
          <mxGeometry relative="1" as="geometry" />
        </mxCell>
        <mxCell id="QHepV67mNHW0xdAY22cd-1" value="Xfile-Server" style="rounded=0;whiteSpace=wrap;html=1;" vertex="1" parent="1">
          <mxGeometry x="210" y="70" width="120" height="60" as="geometry" />
        </mxCell>
        <mxCell id="QHepV67mNHW0xdAY22cd-11" style="edgeStyle=orthogonalEdgeStyle;rounded=0;orthogonalLoop=1;jettySize=auto;html=1;" edge="1" parent="1" source="QHepV67mNHW0xdAY22cd-2" target="QHepV67mNHW0xdAY22cd-4">
          <mxGeometry relative="1" as="geometry" />
        </mxCell>
        <mxCell id="QHepV67mNHW0xdAY22cd-2" value="运输-Server" style="rounded=0;whiteSpace=wrap;html=1;" vertex="1" parent="1">
          <mxGeometry x="530" y="70" width="120" height="60" as="geometry" />
        </mxCell>
        <mxCell id="QHepV67mNHW0xdAY22cd-8" style="edgeStyle=orthogonalEdgeStyle;rounded=0;orthogonalLoop=1;jettySize=auto;html=1;entryX=0.5;entryY=0;entryDx=0;entryDy=0;" edge="1" parent="1" source="QHepV67mNHW0xdAY22cd-3" target="QHepV67mNHW0xdAY22cd-5">
          <mxGeometry relative="1" as="geometry" />
        </mxCell>
        <mxCell id="QHepV67mNHW0xdAY22cd-9" style="edgeStyle=orthogonalEdgeStyle;rounded=0;orthogonalLoop=1;jettySize=auto;html=1;" edge="1" parent="1" source="QHepV67mNHW0xdAY22cd-3" target="QHepV67mNHW0xdAY22cd-6">
          <mxGeometry relative="1" as="geometry" />
        </mxCell>
        <mxCell id="QHepV67mNHW0xdAY22cd-3" value="HIDP-Xfile-运输" style="rounded=0;whiteSpace=wrap;html=1;" vertex="1" parent="1">
          <mxGeometry x="210" y="180" width="120" height="60" as="geometry" />
        </mxCell>
        <mxCell id="QHepV67mNHW0xdAY22cd-12" style="edgeStyle=orthogonalEdgeStyle;rounded=0;orthogonalLoop=1;jettySize=auto;html=1;entryX=0.5;entryY=0;entryDx=0;entryDy=0;" edge="1" parent="1" source="QHepV67mNHW0xdAY22cd-4" target="QHepV67mNHW0xdAY22cd-7">
          <mxGeometry relative="1" as="geometry" />
        </mxCell>
        <mxCell id="QHepV67mNHW0xdAY22cd-4" value="HIDP-运输" style="rounded=0;whiteSpace=wrap;html=1;" vertex="1" parent="1">
          <mxGeometry x="530" y="180" width="120" height="60" as="geometry" />
        </mxCell>
        <mxCell id="QHepV67mNHW0xdAY22cd-5" value="反爬" style="rounded=0;whiteSpace=wrap;html=1;" vertex="1" parent="1">
          <mxGeometry x="110" y="330" width="120" height="60" as="geometry" />
        </mxCell>
        <mxCell id="QHepV67mNHW0xdAY22cd-6" value="位置" style="rounded=0;whiteSpace=wrap;html=1;" vertex="1" parent="1">
          <mxGeometry x="310" y="330" width="120" height="60" as="geometry" />
        </mxCell>
        <mxCell id="QHepV67mNHW0xdAY22cd-7" value="运输自有场景" style="rounded=0;whiteSpace=wrap;html=1;" vertex="1" parent="1">
          <mxGeometry x="530" y="330" width="120" height="60" as="geometry" />
        </mxCell>
        <mxCell id="QHepV67mNHW0xdAY22cd-13" value="HIDP租户" style="shape=umlFrame;whiteSpace=wrap;html=1;" vertex="1" parent="1">
          <mxGeometry x="80" y="160" width="690" height="100" as="geometry" />
        </mxCell>
        <mxCell id="QHepV67mNHW0xdAY22cd-14" value="HIDP场景" style="shape=umlFrame;whiteSpace=wrap;html=1;" vertex="1" parent="1">
          <mxGeometry x="80" y="260" width="690" height="150" as="geometry" />
        </mxCell>
        <mxCell id="QHepV67mNHW0xdAY22cd-15" value="应用" style="shape=umlFrame;whiteSpace=wrap;html=1;" vertex="1" parent="1">
          <mxGeometry x="80" y="40" width="690" height="120" as="geometry" />
        </mxCell>
        <mxCell id="QHepV67mNHW0xdAY22cd-31" style="edgeStyle=orthogonalEdgeStyle;rounded=0;orthogonalLoop=1;jettySize=auto;html=1;entryX=0.5;entryY=0;entryDx=0;entryDy=0;" edge="1" parent="1" source="QHepV67mNHW0xdAY22cd-17" target="QHepV67mNHW0xdAY22cd-22">
          <mxGeometry relative="1" as="geometry" />
        </mxCell>
        <mxCell id="QHepV67mNHW0xdAY22cd-17" value="Xfile-Server" style="rounded=0;whiteSpace=wrap;html=1;" vertex="1" parent="1">
          <mxGeometry x="210" y="470" width="120" height="60" as="geometry" />
        </mxCell>
        <mxCell id="QHepV67mNHW0xdAY22cd-37" style="edgeStyle=orthogonalEdgeStyle;rounded=0;orthogonalLoop=1;jettySize=auto;html=1;entryX=0.5;entryY=0;entryDx=0;entryDy=0;" edge="1" parent="1" source="QHepV67mNHW0xdAY22cd-19" target="QHepV67mNHW0xdAY22cd-22">
          <mxGeometry relative="1" as="geometry" />
        </mxCell>
        <mxCell id="QHepV67mNHW0xdAY22cd-19" value="运输-Server" style="rounded=0;whiteSpace=wrap;html=1;" vertex="1" parent="1">
          <mxGeometry x="530" y="470" width="120" height="60" as="geometry" />
        </mxCell>
        <mxCell id="QHepV67mNHW0xdAY22cd-33" style="edgeStyle=orthogonalEdgeStyle;rounded=0;orthogonalLoop=1;jettySize=auto;html=1;entryX=0.442;entryY=-0.042;entryDx=0;entryDy=0;entryPerimeter=0;" edge="1" parent="1" source="QHepV67mNHW0xdAY22cd-22" target="QHepV67mNHW0xdAY22cd-25">
          <mxGeometry relative="1" as="geometry" />
        </mxCell>
        <mxCell id="QHepV67mNHW0xdAY22cd-34" style="edgeStyle=orthogonalEdgeStyle;rounded=0;orthogonalLoop=1;jettySize=auto;html=1;entryX=0.5;entryY=0;entryDx=0;entryDy=0;" edge="1" parent="1" source="QHepV67mNHW0xdAY22cd-22" target="QHepV67mNHW0xdAY22cd-26">
          <mxGeometry relative="1" as="geometry" />
        </mxCell>
        <mxCell id="QHepV67mNHW0xdAY22cd-35" style="edgeStyle=orthogonalEdgeStyle;rounded=0;orthogonalLoop=1;jettySize=auto;html=1;entryX=0.608;entryY=-0.042;entryDx=0;entryDy=0;entryPerimeter=0;" edge="1" parent="1" source="QHepV67mNHW0xdAY22cd-22" target="QHepV67mNHW0xdAY22cd-27">
          <mxGeometry relative="1" as="geometry" />
        </mxCell>
        <mxCell id="QHepV67mNHW0xdAY22cd-22" value="HIDP-运输" style="rounded=0;whiteSpace=wrap;html=1;" vertex="1" parent="1">
          <mxGeometry x="340" y="580" width="120" height="60" as="geometry" />
        </mxCell>
        <mxCell id="QHepV67mNHW0xdAY22cd-25" value="反爬" style="rounded=0;whiteSpace=wrap;html=1;" vertex="1" parent="1">
          <mxGeometry x="150" y="730" width="120" height="60" as="geometry" />
        </mxCell>
        <mxCell id="QHepV67mNHW0xdAY22cd-26" value="位置" style="rounded=0;whiteSpace=wrap;html=1;" vertex="1" parent="1">
          <mxGeometry x="340" y="730" width="120" height="60" as="geometry" />
        </mxCell>
        <mxCell id="QHepV67mNHW0xdAY22cd-27" value="运输自有场景" style="rounded=0;whiteSpace=wrap;html=1;" vertex="1" parent="1">
          <mxGeometry x="530" y="730" width="120" height="60" as="geometry" />
        </mxCell>
        <mxCell id="QHepV67mNHW0xdAY22cd-28" value="HIDP租户" style="shape=umlFrame;whiteSpace=wrap;html=1;" vertex="1" parent="1">
          <mxGeometry x="80" y="560" width="690" height="100" as="geometry" />
        </mxCell>
        <mxCell id="QHepV67mNHW0xdAY22cd-29" value="HIDP场景" style="shape=umlFrame;whiteSpace=wrap;html=1;" vertex="1" parent="1">
          <mxGeometry x="80" y="660" width="690" height="150" as="geometry" />
        </mxCell>
        <mxCell id="QHepV67mNHW0xdAY22cd-30" value="应用" style="shape=umlFrame;whiteSpace=wrap;html=1;" vertex="1" parent="1">
          <mxGeometry x="80" y="440" width="690" height="120" as="geometry" />
        </mxCell>
      </root>
    </mxGraphModel>
  </diagram>
</mxfile>
